name C:\Users\u0150099\Documents\master_thesis\3dpredictsim\Results\debug\Fal_s1_mtjc5_sc_cspx10_oy_MTc2_MTPm_k1_d01_MTJm_nl_MG_exp5_table_d01_PF_Natali2010_ls146_ig21.mot
datacolumns 128
datarows 4
range 1.03496952 1.06601861
endheader
time	pelvis_tilt	pelvis_list	pelvis_rotation	pelvis_tx	pelvis_ty	pelvis_tz	hip_flexion_l	hip_adduction_l	hip_rotation_l	hip_flexion_r	hip_adduction_r	hip_rotation_r	knee_angle_l	knee_angle_r	ankle_angle_l	ankle_angle_r	subtalar_angle_l	subtalar_angle_r	mtj_angle_l	mtj_angle_r	mtp_angle_l	mtp_angle_r	lumbar_extension	lumbar_bending	lumbar_rotation	arm_flex_l	arm_add_l	arm_rot_l	arm_flex_r	arm_add_r	arm_rot_r	elbow_flex_l	elbow_flex_r	pro_sup_l	pro_sup_r	glut_med1_l/activation	glut_med2_l/activation	glut_med3_l/activation	glut_min1_l/activation	glut_min2_l/activation	glut_min3_l/activation	semimem_l/activation	semiten_l/activation	bifemlh_l/activation	bifemsh_l/activation	sar_l/activation	add_long_l/activation	add_brev_l/activation	add_mag1_l/activation	add_mag2_l/activation	add_mag3_l/activation	tfl_l/activation	pect_l/activation	grac_l/activation	glut_max1_l/activation	glut_max2_l/activation	glut_max3_l/activation	iliacus_l/activation	psoas_l/activation	quad_fem_l/activation	gem_l/activation	peri_l/activation	rect_fem_l/activation	vas_med_l/activation	vas_int_l/activation	vas_lat_l/activation	med_gas_l/activation	lat_gas_l/activation	soleus_l/activation	tib_post_l/activation	flex_dig_l/activation	flex_hal_l/activation	tib_ant_l/activation	per_brev_l/activation	per_long_l/activation	per_tert_l/activation	ext_dig_l/activation	ext_hal_l/activation	ercspn_l/activation	intobl_l/activation	extobl_l/activation	glut_med1_r/activation	glut_med2_r/activation	glut_med3_r/activation	glut_min1_r/activation	glut_min2_r/activation	glut_min3_r/activation	semimem_r/activation	semiten_r/activation	bifemlh_r/activation	bifemsh_r/activation	sar_r/activation	add_long_r/activation	add_brev_r/activation	add_mag1_r/activation	add_mag2_r/activation	add_mag3_r/activation	tfl_r/activation	pect_r/activation	grac_r/activation	glut_max1_r/activation	glut_max2_r/activation	glut_max3_r/activation	iliacus_r/activation	psoas_r/activation	quad_fem_r/activation	gem_r/activation	peri_r/activation	rect_fem_r/activation	vas_med_r/activation	vas_int_r/activation	vas_lat_r/activation	med_gas_r/activation	lat_gas_r/activation	soleus_r/activation	tib_post_r/activation	flex_dig_r/activation	flex_hal_r/activation	tib_ant_r/activation	per_brev_r/activation	per_long_r/activation	per_tert_r/activation	ext_dig_r/activation	ext_hal_r/activation	ercspn_r/activation	intobl_r/activation	extobl_r/activation	
          1.03496952	         -2.92606544	         -2.30477549	          3.63198906	          1.37650947	          0.91058758	         -0.00376081	        -10.77574868	          0.91292173	          2.72234553	         30.09958344	          2.91551085	         -6.73521615	        -19.48256023	        -15.76931051	          6.34641975	         11.80961404	         -1.44457726	          0.15170515	         -0.04982555	          4.02003601	         22.63042212	         -5.27460798	         -4.51623486	          1.02538511	         -1.47756769	          5.46818166	        -13.63447412	         19.29225279	         -5.08825198	        -13.51693343	          5.69162892	         35.76758468	         24.67487923	         86.51662706	         86.51662706	          0.24631097	          0.05000000	          0.05000000	          0.46430848	          0.17225302	          0.06796514	          0.05000006	          0.05000000	          0.05000000	          0.05000000	          0.05003432	          0.08498021	          0.05000003	          0.05000002	          0.05000008	          0.05000011	          0.40496299	          0.05000132	          0.05000001	          0.05000005	          0.05000002	          0.05000001	          0.11622764	          0.56088636	          0.05000000	          0.05000000	          0.05000000	          0.47798752	          0.17818209	          0.17879442	          0.14997953	          0.39768243	          0.58367440	          0.20053042	          0.45528285	          0.53249200	          0.49636034	          0.05000000	          0.16398248	          0.27230735	          0.05000000	          0.05000000	          0.06873730	          0.05000000	          0.05000000	          0.05000000	          0.05000000	          0.05000009	          0.05000003	          0.05459047	          0.05000016	          0.05000011	          0.28549792	          0.08059402	          0.12338523	          0.08059401	          0.06165296	          0.07216229	          0.07997851	          0.05000008	          0.05860686	          0.19587337	          0.05000001	          0.05000016	          0.08059384	          0.05000007	          0.06052235	          0.22093827	          0.09524311	          0.10818369	          0.13663203	          0.05862469	          0.05862474	          0.05000000	          0.05000001	          0.05000001	          0.05000000	          0.06067330	          0.05288330	          0.05139274	          0.05000000	          0.08059397	          0.05000022	          0.48074610	          0.18421290	          0.09623794	          0.17409105	          0.60182234	          0.28003980	          0.07468739	          0.09043993	          0.10852910	
          1.04531922	         -2.92904918	         -2.33541519	          3.98714952	          1.39267895	          0.90941983	         -0.00345185	        -11.76593952	          0.51728377	          2.24950796	         30.01907738	          3.02001681	         -6.54736227	        -19.26001282	        -15.85389785	          5.44408526	         11.55705587	         -0.35328791	         -0.10457477	         -1.14958357	          4.16835863	         24.87157225	         -5.09925272	         -4.35063311	          1.14108419	         -1.59372680	          5.27043094	        -13.59970082	         19.36966145	         -5.92878008	        -13.47872104	          5.03952502	         36.90746339	         24.40054857	         86.51662706	         86.51662706	          0.21007423	          0.05000000	          0.05000000	          0.39600042	          0.14691153	          0.05796626	          0.05000007	          0.05000000	          0.05000000	          0.05000000	          0.05000002	          0.11600204	          0.08696731	          0.05000002	          0.05000009	          0.09167677	          0.34538576	          0.05000009	          0.05000000	          0.05000005	          0.05000003	          0.05000002	          0.09912848	          0.59810535	          0.05000000	          0.05000000	          0.05000000	          0.41782316	          0.17408305	          0.17431829	          0.14719468	          0.38120565	          0.56001906	          0.18591867	          0.42391131	          0.57881468	          0.43814719	          0.05000000	          0.13985773	          0.23224608	          0.05000000	          0.05000000	          0.05862481	          0.05000000	          0.05000000	          0.05000000	          0.10948025	          0.05000000	          0.05338616	          0.05000000	          0.05000001	          0.05000006	          0.27057647	          0.06873720	          0.10523306	          0.06873720	          0.09388116	          0.09901522	          0.07950778	          0.14572397	          0.05000003	          0.23267273	          0.06579187	          0.05000900	          0.06873722	          0.05000011	          0.08616341	          0.26461917	          0.09449606	          0.09449607	          0.19086510	          0.05000007	          0.05000001	          0.05000000	          0.05000000	          0.05000000	          0.05000000	          0.05862473	          0.05862473	          0.05483878	          0.05862477	          0.06873716	          0.05862484	          0.46823242	          0.17776160	          0.09977471	          0.18595160	          0.60272617	          0.29850088	          0.07493441	          0.10232248	          0.09256253	
          1.05566891	         -2.93015786	         -2.35782310	          4.32828402	          1.40907557	          0.90818315	         -0.00311480	        -12.64699049	          0.11620970	          1.76275904	         29.94408499	          3.12218720	         -6.32527475	        -19.22913388	        -16.60002494	          4.42446275	         10.98754953	          0.78060412	         -0.37280507	         -2.29748462	          4.31036515	         27.20018647	         -4.92967081	         -4.17468876	          1.25390192	         -1.70603061	          5.01012852	        -13.56508794	         19.38715712	         -6.78353757	        -13.45647110	          4.59514586	         38.04175049	         24.14029398	         86.51662706	         86.51662706	          0.17916857	          0.05000000	          0.05000000	          0.33774170	          0.12529823	          0.05000001	          0.05000016	          0.05000000	          0.05000000	          0.05000001	          0.05000002	          0.13877169	          0.27720618	          0.07896674	          0.05014315	          0.07863511	          0.29457345	          0.05209911	          0.05000001	          0.05000006	          0.05000004	          0.05000004	          0.08454491	          0.59914430	          0.05000000	          0.05000003	          0.06142871	          0.35635392	          0.18002100	          0.18167701	          0.15450247	          0.33713683	          0.48973054	          0.15856672	          0.36154642	          0.49366077	          0.37368793	          0.09345187	          0.11928216	          0.19807854	          0.05000000	          0.05000000	          0.05000006	          0.05000000	          0.05000000	          0.05000000	          0.09337376	          0.05003370	          0.05000000	          0.05862475	          0.05862472	          0.05000006	          0.23076984	          0.05862474	          0.08975140	          0.05862474	          0.08006960	          0.08444836	          0.06781079	          0.23355736	          0.20614993	          0.27095802	          0.05611275	          0.05000012	          0.05862475	          0.05000004	          0.13783979	          0.34192378	          0.08059402	          0.08059402	          0.27964023	          0.09292907	          0.05000002	          0.08059403	          0.05000001	          0.05000002	          0.05000001	          0.05000000	          0.05000000	          0.05000000	          0.05000002	          0.05862470	          0.05000008	          0.54728780	          0.25641428	          0.11562068	          0.24471190	          0.67001198	          0.44518141	          0.08077791	          0.08726902	          0.07894493	
          1.06601861	         -2.92940790	         -2.36799578	          4.64817577	          1.42566763	          0.90686456	         -0.00275876	        -13.39198745	         -0.28075441	          1.29380382	         29.82866853	          3.21142926	         -6.06749024	        -19.44854163	        -17.95609357	          3.31991525	         10.31760092	          1.94680204	         -0.70647653	         -3.38746529	          4.43639511	         29.34718342	         -4.67971387	         -3.98940499	          1.36029957	         -1.81196102	          4.68691976	        -13.54398060	         19.38401741	         -7.63896847	        -13.44970710	          4.33434597	         39.18672230	         23.88160737	         86.51662706	         86.51662706	          0.15280968	          0.05862473	          0.05862474	          0.28805387	          0.10686463	          0.05862471	          0.05000004	          0.05863525	          0.05889110	          0.05000000	          0.05862472	          0.23019352	          0.49777326	          0.33547309	          0.14937366	          0.15231651	          0.25123647	          0.06873714	          0.06873714	          0.05862473	          0.05862475	          0.06292247	          0.07210685	          0.64075465	          0.07095692	          0.05862474	          0.05239147	          0.30392791	          0.15353674	          0.15494919	          0.13326621	          0.28753799	          0.41768244	          0.13523873	          0.30835649	          0.42103447	          0.31871177	          0.20654393	          0.13070752	          0.16893780	          0.05000000	          0.05000000	          0.05000000	          0.08361993	          0.05000000	          0.05000000	          0.20205462	          0.05000000	          0.25722050	          0.05000001	          0.05000000	          0.05000000	          0.19681949	          0.05000000	          0.07654737	          0.05000000	          0.06828994	          0.08062409	          0.37246990	          0.26031789	          0.24487528	          0.31681050	          0.05209150	          0.06873726	          0.05000001	          0.05000000	          0.22835518	          0.41315985	          0.06873720	          0.06873720	          0.23850018	          0.07925755	          0.15306072	          0.06873721	          0.12392542	          0.11493564	          0.10099447	          0.06873720	          0.06873720	          0.06873720	          0.05000000	          0.05000000	          0.05000000	          0.64987853	          0.24311046	          0.10607605	          0.20871042	          0.68527044	          0.43824374	          0.07435662	          0.12861542	          0.06733072	
